<svg width="20" height="20" viewBox="0 0 20 20" fill="none" xmlns="http://www.w3.org/2000/svg">
<path d="M18.5021 3.44829H1.49785C0.670586 3.44829 0 4.11887 0 4.94614V7.42813H20V4.94614C20 4.11887 19.3294 3.44829 18.5021 3.44829Z" fill="#82AFFF"/>
<path d="M0 15.0539C0 15.8811 0.670586 16.5517 1.49785 16.5517H18.5021C19.3294 16.5517 20 15.8811 20 15.0539V12.5719H0V15.0539Z" fill="#73AF00"/>
<path d="M20 7.97266H0V12.027H20V7.97266Z" fill="#E0E0E0"/>
<path d="M0 7.81609V7.97273H20V7.81609V7.42809H0V7.81609Z" fill="#FF0000"/>
<path d="M0 12.1839V12.5719H20V12.1839V12.0273H0V12.1839Z" fill="#FF0000"/>
<path d="M4.43332 6.72153C3.72738 6.72153 3.15516 6.15067 3.15516 5.44727C3.15516 4.74129 3.72734 4.16785 4.43332 4.16785C4.43605 4.16785 4.43871 4.16785 4.44137 4.16789C4.48293 4.16844 4.4975 4.11325 4.46086 4.0936C4.24347 3.97707 3.99539 3.91114 3.73164 3.91305C2.88695 3.91907 2.20082 4.61903 2.2098 5.46371C2.21863 6.29969 2.90207 6.97637 3.74269 6.97637C4.00281 6.97637 4.24742 6.91055 4.46211 6.79563C4.49863 6.77606 4.48387 6.72086 4.44246 6.72145C4.43933 6.72153 4.43633 6.72153 4.43332 6.72153Z" fill="#E0E0E0"/>
<path d="M5.43428 6.36915L5.37721 6.54032L5.19678 6.54169C5.17342 6.54185 5.16373 6.57169 5.18252 6.58556L5.32768 6.69274L5.27322 6.86477C5.26619 6.88704 5.29154 6.90548 5.31057 6.89188L5.45736 6.78696L5.60416 6.89188C5.62318 6.90548 5.6485 6.88704 5.6415 6.86477L5.58705 6.69274L5.73217 6.58556C5.75096 6.57169 5.74127 6.54185 5.71791 6.54169L5.53748 6.54032L5.48041 6.36915C5.47303 6.347 5.4417 6.347 5.43428 6.36915Z" fill="#E0E0E0"/>
<path d="M6.70552 6.36915L6.64845 6.54032L6.46802 6.54169C6.44466 6.54185 6.43497 6.57169 6.45376 6.58556L6.59888 6.69274L6.54442 6.86477C6.53739 6.88704 6.56275 6.90548 6.58177 6.89188L6.72857 6.78696L6.87536 6.89188C6.89439 6.90548 6.9197 6.88704 6.91271 6.86477L6.85825 6.69274L7.00337 6.58556C7.02216 6.57169 7.01247 6.54185 6.98911 6.54169L6.80868 6.54032L6.75161 6.36915C6.74423 6.347 6.71286 6.347 6.70552 6.36915Z" fill="#E0E0E0"/>
<path d="M7.97676 6.36915L7.91969 6.54032L7.73926 6.54169C7.7159 6.54185 7.70621 6.57169 7.725 6.58556L7.87016 6.69274L7.8157 6.86477C7.80867 6.88704 7.83402 6.90548 7.85305 6.89188L7.99984 6.78696L8.14664 6.89188C8.16566 6.90548 8.19098 6.88704 8.18398 6.86477L8.12953 6.69274L8.27465 6.58556C8.29344 6.57169 8.28375 6.54185 8.26039 6.54169L8.07996 6.54032L8.02289 6.36915C8.01551 6.347 7.98414 6.347 7.97676 6.36915Z" fill="#E0E0E0"/>
<path d="M9.24775 6.36915L9.19068 6.54032L9.01025 6.54169C8.9869 6.54185 8.97721 6.57169 8.996 6.58556L9.14111 6.69274L9.08666 6.86477C9.07963 6.88704 9.10498 6.90548 9.124 6.89188L9.2708 6.78696L9.4176 6.89188C9.43662 6.90548 9.46193 6.88704 9.45494 6.86477L9.40049 6.69274L9.5456 6.58556C9.56439 6.57169 9.55471 6.54185 9.53135 6.54169L9.35092 6.54032L9.29385 6.36915C9.2865 6.347 9.25514 6.347 9.24775 6.36915Z" fill="#E0E0E0"/>
<path d="M10.519 6.36915L10.4619 6.54032L10.2815 6.54169C10.2581 6.54185 10.2484 6.57169 10.2672 6.58556L10.4124 6.69274L10.3579 6.86477C10.3509 6.88704 10.3763 6.90548 10.3953 6.89188L10.5421 6.78696L10.6889 6.89188C10.7079 6.90548 10.7332 6.88704 10.7262 6.86477L10.6718 6.69274L10.8169 6.58556C10.8357 6.57169 10.826 6.54185 10.8027 6.54169L10.6222 6.54032L10.5652 6.36915C10.5577 6.347 10.5264 6.347 10.519 6.36915Z" fill="#E0E0E0"/>
<path d="M6.70552 5.18273L6.64845 5.3539L6.46802 5.35527C6.44466 5.35543 6.43497 5.38527 6.45376 5.39914L6.59888 5.50633L6.54442 5.67836C6.53739 5.70062 6.56275 5.71906 6.58177 5.70547L6.72857 5.60055L6.87536 5.70547C6.89439 5.71906 6.9197 5.70062 6.91271 5.67836L6.85825 5.50633L7.00337 5.39914C7.02216 5.38527 7.01247 5.35543 6.98911 5.35527L6.80868 5.3539L6.75161 5.18273C6.74423 5.1605 6.71286 5.1605 6.70552 5.18273Z" fill="#E0E0E0"/>
<path d="M7.97676 5.18273L7.91969 5.3539L7.73926 5.35527C7.7159 5.35543 7.70621 5.38527 7.725 5.39914L7.87016 5.50633L7.8157 5.67836C7.80867 5.70062 7.83402 5.71906 7.85305 5.70547L7.99984 5.60055L8.14664 5.70547C8.16566 5.71906 8.19098 5.70062 8.18398 5.67836L8.12953 5.50633L8.27465 5.39914C8.29344 5.38527 8.28375 5.35543 8.26039 5.35527L8.07996 5.3539L8.02289 5.18273C8.01551 5.1605 7.98414 5.1605 7.97676 5.18273Z" fill="#E0E0E0"/>
<path d="M9.24775 5.18273L9.19068 5.3539L9.01025 5.35527C8.9869 5.35543 8.97721 5.38527 8.996 5.39914L9.14111 5.50633L9.08666 5.67836C9.07963 5.70062 9.10498 5.71906 9.124 5.70547L9.2708 5.60055L9.4176 5.70547C9.43662 5.71906 9.46193 5.70062 9.45494 5.67836L9.40049 5.50633L9.5456 5.39914C9.56439 5.38527 9.55471 5.35543 9.53135 5.35527L9.35092 5.3539L9.29385 5.18273C9.2865 5.1605 9.25514 5.1605 9.24775 5.18273Z" fill="#E0E0E0"/>
<path d="M10.519 5.18273L10.4619 5.3539L10.2815 5.35527C10.2581 5.35543 10.2484 5.38527 10.2672 5.39914L10.4124 5.50633L10.3579 5.67836C10.3509 5.70062 10.3763 5.71906 10.3953 5.70547L10.5421 5.60055L10.6889 5.70547C10.7079 5.71906 10.7332 5.70062 10.7262 5.67836L10.6718 5.50633L10.8169 5.39914C10.8357 5.38527 10.826 5.35543 10.8027 5.35527L10.6222 5.3539L10.5652 5.18273C10.5577 5.1605 10.5264 5.1605 10.519 5.18273Z" fill="#E0E0E0"/>
<path d="M7.97676 6.36915L7.91969 6.54032L7.73926 6.54169C7.7159 6.54185 7.70621 6.57169 7.725 6.58556L7.87016 6.69274L7.8157 6.86477C7.80867 6.88704 7.83402 6.90548 7.85305 6.89188L7.99984 6.78696L8.14664 6.89188C8.16566 6.90548 8.19098 6.88704 8.18398 6.86477L8.12953 6.69274L8.27465 6.58556C8.29344 6.57169 8.28375 6.54185 8.26039 6.54169L8.07996 6.54032L8.02289 6.36915C8.01551 6.347 7.98414 6.347 7.97676 6.36915Z" fill="#E0E0E0"/>
<path d="M7.97676 3.99626L7.91969 4.16743L7.73926 4.1688C7.7159 4.16895 7.70621 4.1988 7.725 4.21266L7.87016 4.31985L7.8157 4.49188C7.80867 4.51415 7.83402 4.53258 7.85305 4.51899L7.99984 4.41407L8.14664 4.51899C8.16566 4.53258 8.19098 4.51415 8.18398 4.49188L8.12953 4.31985L8.27465 4.21266C8.29344 4.1988 8.28375 4.16895 8.26039 4.1688L8.07996 4.16743L8.02289 3.99626C8.01551 3.97411 7.98414 3.97411 7.97676 3.99626Z" fill="#E0E0E0"/>
<path d="M9.24775 6.36915L9.19068 6.54032L9.01025 6.54169C8.9869 6.54185 8.97721 6.57169 8.996 6.58556L9.14111 6.69274L9.08666 6.86477C9.07963 6.88704 9.10498 6.90548 9.124 6.89188L9.2708 6.78696L9.4176 6.89188C9.43662 6.90548 9.46193 6.88704 9.45494 6.86477L9.40049 6.69274L9.5456 6.58556C9.56439 6.57169 9.55471 6.54185 9.53135 6.54169L9.35092 6.54032L9.29385 6.36915C9.2865 6.347 9.25514 6.347 9.24775 6.36915Z" fill="#E0E0E0"/>
<path d="M10.519 6.36915L10.4619 6.54032L10.2815 6.54169C10.2581 6.54185 10.2484 6.57169 10.2672 6.58556L10.4124 6.69274L10.3579 6.86477C10.3509 6.88704 10.3763 6.90548 10.3953 6.89188L10.5421 6.78696L10.6889 6.89188C10.7079 6.90548 10.7332 6.88704 10.7262 6.86477L10.6718 6.69274L10.8169 6.58556C10.8357 6.57169 10.826 6.54185 10.8027 6.54169L10.6222 6.54032L10.5652 6.36915C10.5577 6.347 10.5264 6.347 10.519 6.36915Z" fill="#E0E0E0"/>
<path d="M9.24775 3.99626L9.19068 4.16743L9.01025 4.1688C8.9869 4.16895 8.97721 4.1988 8.996 4.21266L9.14111 4.31985L9.08666 4.49188C9.07963 4.51415 9.10498 4.53258 9.124 4.51899L9.2708 4.41407L9.4176 4.51899C9.43662 4.53258 9.46193 4.51415 9.45494 4.49188L9.40049 4.31985L9.5456 4.21266C9.56439 4.1988 9.55471 4.16895 9.53135 4.1688L9.35092 4.16743L9.29385 3.99626C9.2865 3.97411 9.25514 3.97411 9.24775 3.99626Z" fill="#E0E0E0"/>
<path d="M10.519 3.99626L10.4619 4.16743L10.2815 4.1688C10.2581 4.16895 10.2484 4.1988 10.2672 4.21266L10.4124 4.31985L10.3579 4.49188C10.3509 4.51415 10.3763 4.53258 10.3953 4.51899L10.5421 4.41407L10.6889 4.51899C10.7079 4.53258 10.7332 4.51415 10.7262 4.49188L10.6718 4.31985L10.8169 4.21266C10.8357 4.1988 10.826 4.16895 10.8027 4.1688L10.6222 4.16743L10.5652 3.99626C10.5577 3.97411 10.5264 3.97411 10.519 3.99626Z" fill="#E0E0E0"/>
</svg>
